HIERARCHY
ROOT hip
{
  OFFSET -18.89 80.8588 275.764
  CHANNELS 6 Xposition Yposition Zposition Zrotation Xrotation Yrotation
  JOINT abdomen
  {
    OFFSET 0 20.6881 -0.73152
    CHANNELS 3 Zrotation Xrotation Yrotation
    JOINT chest
    {
      OFFSET 0 11.7043 -0.48768
      CHANNELS 3 Zrotation Xrotation Yrotation
      JOINT neck
      {
        OFFSET 0 22.1894 -2.19456
        CHANNELS 3 Zrotation Xrotation Yrotation
        JOINT head
        {
          OFFSET -0.24384 7.07133 1.2192
          CHANNELS 3 Zrotation Xrotation Yrotation
          JOINT leftEye
          {
            OFFSET 4.14528 8.04674 8.04672
            CHANNELS 3 Zrotation Xrotation Yrotation
            End Site
            {
              OFFSET 1 0 0
            }
          }
          JOINT rightEye
          {
            OFFSET -3.6576 8.04674 8.04672
            CHANNELS 3 Zrotation Xrotation Yrotation
            End Site
            {
              OFFSET 1 0 0
            }
          }
        }
      }
      JOINT rCollar
      {
        OFFSET -2.68224 19.2634 -4.8768
        CHANNELS 3 Zrotation Xrotation Yrotation
        JOINT rShldr
        {
          OFFSET -8.77824 -1.95073 1.46304
          CHANNELS 3 Zrotation Xrotation Yrotation
          JOINT rForeArm
          {
            OFFSET -28.1742 -1.7115 0.48768
            CHANNELS 3 Zrotation Xrotation Yrotation
            JOINT rHand
            {
              OFFSET -22.5879 0.773209 7.07136
              CHANNELS 3 Zrotation Xrotation Yrotation
              JOINT rThumb1
              {
                OFFSET -1.2192 -0.487915 3.41376
                CHANNELS 3 Zrotation Xrotation Yrotation
                JOINT rThumb2
                {
                  OFFSET -3.37035 -0.52449 3.41376
                  CHANNELS 3 Zrotation Xrotation Yrotation
                  End Site
                  {
                    OFFSET -1.78271 -1.18214 1.43049
                  }
                }
              }
              JOINT rIndex1
              {
                OFFSET -7.75947 0.938293 5.60832
                CHANNELS 3 Zrotation Xrotation Yrotation
                JOINT rIndex2
                {
                  OFFSET -2.54057 -0.884171 1.56538
                  CHANNELS 3 Zrotation Xrotation Yrotation
                  End Site
                  {
                    OFFSET -1.62519 -0.234802 1.16502
                  }
                }
              }
              JOINT rMid1
              {
                OFFSET -8.24714 1.18213 3.41376
                CHANNELS 3 Zrotation Xrotation Yrotation
                JOINT rMid2
                {
                  OFFSET -3.10165 -0.590103 1.0647
                  CHANNELS 3 Zrotation Xrotation Yrotation
                  End Site
                  {
                    OFFSET -2.48547 -0.328903 0.83742
                  }
                }
              }
              JOINT rRing1
              {
                OFFSET -8.82822 0.546677 1.51678
                CHANNELS 3 Zrotation Xrotation Yrotation
                JOINT rRing2
                {
                  OFFSET -2.60934 -0.819778 -0.0198488
                  CHANNELS 3 Zrotation Xrotation Yrotation
                  End Site
                  {
                    OFFSET -2.33842 -0.294052 0.168128
                  }
                }
              }
              JOINT rPinky1
              {
                OFFSET -8.27202 -0.0477905 -0.4584
                CHANNELS 3 Zrotation Xrotation Yrotation
                JOINT rPinky2
                {
                  OFFSET -1.82734 -0.647385 -0.700984
                  CHANNELS 3 Zrotation Xrotation Yrotation
                  End Site
                  {
                    OFFSET -1.69225 -0.51767 -0.607171
                  }
                }
              }
            }
          }
        }
      }
      JOINT lCollar
      {
        OFFSET 2.68224 19.2634 -4.8768
        CHANNELS 3 Zrotation Xrotation Yrotation
        JOINT lShldr
        {
          OFFSET 8.77824 -1.95073 1.46304
          CHANNELS 3 Zrotation Xrotation Yrotation
          JOINT lForeArm
          {
            OFFSET 28.1742 -1.7115 0.48768
            CHANNELS 3 Zrotation Xrotation Yrotation
            JOINT lHand
            {
              OFFSET 22.5879 0.773209 7.07136
              CHANNELS 3 Zrotation Xrotation Yrotation
              JOINT lThumb1
              {
                OFFSET 1.2192 -0.487915 3.41376
                CHANNELS 3 Zrotation Xrotation Yrotation
                JOINT lThumb2
                {
                  OFFSET 3.37035 -0.52449 3.41376
                  CHANNELS 3 Zrotation Xrotation Yrotation
                  End Site
                  {
                    OFFSET 1.78271 -1.18214 1.43049
                  }
                }
              }
              JOINT lIndex1
              {
                OFFSET 7.75947 0.938293 5.60832
                CHANNELS 3 Zrotation Xrotation Yrotation
                JOINT lIndex2
                {
                  OFFSET 2.54057 -0.884171 1.56538
                  CHANNELS 3 Zrotation Xrotation Yrotation
                  End Site
                  {
                    OFFSET 1.62519 -0.234802 1.16502
                  }
                }
              }
              JOINT lMid1
              {
                OFFSET 8.24714 1.18213 3.41376
                CHANNELS 3 Zrotation Xrotation Yrotation
                JOINT lMid2
                {
                  OFFSET 3.10165 -0.590103 1.0647
                  CHANNELS 3 Zrotation Xrotation Yrotation
                  End Site
                  {
                    OFFSET 2.48547 -0.328903 0.83742
                  }
                }
              }
              JOINT lRing1
              {
                OFFSET 8.82822 0.546677 1.51678
                CHANNELS 3 Zrotation Xrotation Yrotation
                JOINT lRing2
                {
                  OFFSET 2.60934 -0.819778 -0.0198488
                  CHANNELS 3 Zrotation Xrotation Yrotation
                  End Site
                  {
                    OFFSET 2.33842 -0.294052 0.168128
                  }
                }
              }
              JOINT lPinky1
              {
                OFFSET 8.27202 -0.0477905 -0.4584
                CHANNELS 3 Zrotation Xrotation Yrotation
                JOINT lPinky2
                {
                  OFFSET 1.82734 -0.647385 -0.700984
                  CHANNELS 3 Zrotation Xrotation Yrotation
                  End Site
                  {
                    OFFSET 1.69225 -0.51767 -0.607171
                  }
                }
              }
            }
          }
        }
      }
    }
  }
  JOINT rButtock
  {
    OFFSET -8.77824 4.35084 1.2192
    CHANNELS 3 Zrotation Xrotation Yrotation
    JOINT rThigh
    {
      OFFSET 0 -1.70687 -2.19456
      CHANNELS 3 Zrotation Xrotation Yrotation
      JOINT rShin
      {
        OFFSET 0 -36.8199 0.73152
        CHANNELS 3 Zrotation Xrotation Yrotation
        JOINT rFoot
        {
          OFFSET 0.73152 -45.1104 -5.12064
          CHANNELS 3 Zrotation Xrotation Yrotation
          End Site
          {
            OFFSET -1.1221 -3.69964 12.103
          }
        }
      }
    }
  }
  JOINT lButtock
  {
    OFFSET 8.77824 4.35084 1.2192
    CHANNELS 3 Zrotation Xrotation Yrotation
    JOINT lThigh
    {
      OFFSET 0 -1.70687 -2.19456
      CHANNELS 3 Zrotation Xrotation Yrotation
      JOINT lShin
      {
        OFFSET 0 -36.8199 0.73152
        CHANNELS 3 Zrotation Xrotation Yrotation
        JOINT lFoot
        {
          OFFSET -0.73152 -45.1104 -5.12064
          CHANNELS 3 Zrotation Xrotation Yrotation
          End Site
          {
            OFFSET 1.1221 -3.69964 12.103
          }
        }
      }
    }
  }
}
MOTION
Frames:	8
Frame Time:	0.00833333
0.531339 79.0108 -195.234 -1.1975 0.00337766 0.0224841 1.57508 -0.00270757 0.0428972 0.434176 0.00151703 0.0751891 -3.63007e-015 -7.95139e-016 5.71506e-016 -1.12872e-014 3.18055e-015 1.78751e-015 -0 0 0 -0 0 0 -1.83967e-015 8.30858e-017 3.97569e-016 -3.78389e-014 1.71452e-015 7.15625e-015 -6.95448e-013 2.70347e-013 1.20861e-013 -8.08074e-012 1.07244e-013 1.22133e-012 -1.9043e-011 8.16373e-013 2.93565e-012 -3.28953e-011 1.40581e-012 5.06265e-012 -1.90384e-011 8.18595e-013 2.91975e-012 7.73091 5.47488 0.417314 -1.90426e-011 8.16309e-013 2.93565e-012 2.90554 0.965183 0.102902 -1.90337e-011 8.17005e-013 2.93406e-012 10.2786 0.731801 0.0259123 -1.90505e-011 8.178e-013 2.94201e-012 2.22167 -0.733487 -0.20892 -1.83796e-015 8.15328e-017 1.49089e-016 -4.3684e-014 1.90088e-015 5.1684e-015 -7.17165e-013 -1.47299e-013 1.55847e-013 -8.07929e-012 5.1843e-013 1.20543e-012 -1.90797e-011 8.0146e-013 2.93565e-012 -3.29422e-011 1.38354e-012 5.06583e-012 -1.90853e-011 8.01102e-013 2.93883e-012 -7.73091 5.47488 -0.417314 -1.908e-011 8.01997e-013 2.93247e-012 -2.90554 0.965183 -0.102902 -1.90842e-011 8.01102e-013 2.93168e-012 -10.2786 0.731801 -0.0259123 -1.90764e-011 8.02692e-013 2.92293e-012 -2.22167 -0.733487 0.20892 -2.03217e-016 0 -3.88251e-019 1.70404 -6.6041 -0.15929 0.00259243 6.39982 0.0734131 -0.527164 0.199678 0.0639894 2.03217e-016 0 3.88251e-019 0.691435 -1.9236 0.00559145 0.00918177 -2.07857 0.0757835 0.503586 3.99746 -0.139048 
2.37979 76.2321 -199.97 0.172443 3.47074 -1.46932 2.05795 4.66497 -1.21712 1.63426 -2.34899 -0.103865 -0.213215 -0.743846 0.616051 -2.63107 -5.03306 0.871185 -0 0 0 -0 0 0 -3.16037e-014 -4.48827e-014 6.5618e-014 19.7613 6.49098 -2.47342 -21.7712 -19.6208 15.0593 0.0171072 -2.90381 -0.406216 -2.23502e-010 3.93309e-010 -5.50713e-010 -3.83052e-010 6.71684e-010 -9.51904e-010 -2.23498e-010 3.93314e-010 -5.50724e-010 7.73091 5.47488 0.417314 -2.23502e-010 3.93311e-010 -5.50712e-010 2.90554 0.965183 0.102902 -2.23493e-010 3.93312e-010 -5.50712e-010 10.2786 0.731801 0.0259123 -2.23509e-010 3.93311e-010 -5.50704e-010 2.22167 -0.733487 -0.20892 -3.16126e-014 -4.4898e-014 6.534e-014 -20.1762 16.7124 -2.93335 23.0436 -20.9344 -14.9222 -0.00540662 -1.7102 0.240011 5.9555e-011 -5.49146e-010 -2.10948e-010 1.02308e-010 -9.51142e-010 -3.65145e-010 5.95516e-011 -5.49144e-010 -2.10945e-010 -7.73091 5.47488 -0.417314 5.95558e-011 -5.49144e-010 -2.10949e-010 -2.90554 0.965183 -0.102902 5.95509e-011 -5.49145e-010 -2.10951e-010 -10.2786 0.731801 -0.0259123 5.9559e-011 -5.49145e-010 -2.10959e-010 -2.22167 -0.733487 0.20892 -2.03217e-016 0 -3.88251e-019 -1.80515 -23.0146 -0.929399 -0.308084 20.2936 0.0845227 -0.635606 -0.884244 -1.6981 2.03217e-016 0 3.88251e-019 -3.0524 -3.65993 -1.12987 0.00671817 16.8368 -0.1683 0.518744 7.96307 -1.65678 
1.84593 76.1214 -196.269 1.90731 7.17306 -3.05412 2.68459 9.51696 -2.60841 2.90289 -4.80316 -0.308419 -0.417194 -1.53799 1.27609 -5.23467 -10.3346 1.8332 -0 0 0 -0 0 0 -6.57492e-014 -9.43712e-014 1.39109e-013 41.3051 13.2924 -5.3819 -31.984 -35.5416 36.752 -0.00985479 -5.98507 -0.840816 -4.56677e-010 8.92458e-010 -1.14965e-009 -7.82629e-010 1.52595e-009 -1.98715e-009 -4.56672e-010 8.92466e-010 -1.14966e-009 7.73091 5.47488 0.417314 -4.56676e-010 8.92463e-010 -1.14965e-009 2.90554 0.965183 0.102902 -4.56668e-010 8.92464e-010 -1.14965e-009 10.2786 0.731801 0.0259123 -4.56681e-010 8.9246e-010 -1.14964e-009 2.22167 -0.733487 -0.20892 -6.57697e-014 -9.4402e-014 1.38798e-013 -39.2676 34.2677 -7.07931 33.5399 -38.1061 -37.4704 0.00496045 -3.57729 0.502806 1.58989e-010 -1.23416e-009 -4.78059e-010 2.7345e-010 -2.13736e-009 -8.27423e-010 1.58988e-010 -1.23415e-009 -4.78056e-010 -7.73091 5.47488 -0.417314 1.58991e-010 -1.23415e-009 -4.78057e-010 -2.90554 0.965183 -0.102902 1.58985e-010 -1.23416e-009 -4.78061e-010 -10.2786 0.731801 -0.0259123 1.58993e-010 -1.23416e-009 -4.78068e-010 -2.22167 -0.733487 0.20892 -2.03217e-016 0 -3.88251e-019 -6.27036 -40.5177 -2.11969 -0.647206 34.9176 0.0997118 -0.813321 -1.92951 -3.55747 2.03217e-016 0 3.88251e-019 -7.19083 -5.26344 -2.4343 0.20932 36.5637 -0.507906 0.782237 12.2769 -3.35221 
1.21715 76.0379 -192.463 3.46104 10.3772 -4.51892 3.65497 13.9733 -3.83881 3.9901 -7.04977 -0.465229 -0.591634 -2.2305 1.8494 -7.42029 -15.085 2.69646 -0 0 0 -0 0 0 -9.11317e-014 -1.34814e-013 1.96059e-013 61.045 19.3234 -7.81545 -30.4155 -40.0556 61.9583 -0.0734195 -8.70966 -1.23128 -6.32421e-010 1.17829e-009 -1.65801e-009 -1.08337e-009 2.01224e-009 -2.86584e-009 -6.32416e-010 1.1783e-009 -1.65801e-009 7.73091 5.47488 0.417314 -6.32421e-010 1.1783e-009 -1.65801e-009 2.90554 0.965183 0.102902 -6.32413e-010 1.1783e-009 -1.658e-009 10.2786 0.731801 0.0259123 -6.32425e-010 1.1783e-009 -1.658e-009 2.22167 -0.733487 -0.20892 -9.11619e-014 -1.34857e-013 1.95722e-013 -53.0844 49.4623 -13.0326 30.7013 -42.4566 -64.4934 0.02691 -5.13023 0.722607 2.16824e-010 -1.64904e-009 -6.38716e-010 3.72808e-010 -2.85619e-009 -1.10557e-009 2.16826e-010 -1.64903e-009 -6.38712e-010 -7.73091 5.47488 -0.417314 2.16827e-010 -1.64904e-009 -6.38711e-010 -2.90554 0.965183 -0.102902 2.16821e-010 -1.64904e-009 -6.38717e-010 -10.2786 0.731801 -0.0259123 2.1683e-010 -1.64904e-009 -6.38723e-010 -2.22167 -0.733487 0.20892 -2.03217e-016 0 -3.88251e-019 -11.0814 -55.7787 -4.00263 -0.960233 48.0812 0.137585 -1.05243 -3.04057 -5.22906 2.03217e-016 0 3.88251e-019 -10.7478 -7.12213 -3.42029 0.756342 54.6629 -1.09745 1.20153 15.8505 -4.82899 
0.460348 75.9403 -188.661 4.16604 12.3629 -5.61794 5.0244 17.4685 -4.57175 4.66022 -8.77776 -0.498976 -0.727951 -2.67003 2.20459 -8.91351 -18.4719 3.23117 -0 0 0 -0 0 0 -9.46068e-014 -1.52644e-013 2.11656e-013 74.7954 23.6165 -8.62407 -28.4234 -36.4073 77.6932 -0.138333 -10.5443 -1.49903 -6.64591e-010 9.30849e-010 -1.9399e-009 -1.13701e-009 1.57861e-009 -3.3531e-009 -6.64586e-010 9.3086e-010 -1.9399e-009 7.73091 5.47488 0.417314 -6.64592e-010 9.30858e-010 -1.9399e-009 2.90554 0.965183 0.102902 -6.64584e-010 9.30858e-010 -1.9399e-009 10.2786 0.731801 0.0259123 -6.64595e-010 9.30851e-010 -1.93989e-009 2.22167 -0.733487 -0.20892 -9.46421e-014 -1.52689e-013 2.11308e-013 -59.5976 59.4067 -19.693 28.3438 -37.867 -80.1779 0.0428586 -5.89823 0.831912 1.70665e-010 -1.3886e-009 -5.33236e-010 2.92709e-010 -2.40659e-009 -9.23385e-010 1.70668e-010 -1.38859e-009 -5.33233e-010 -7.73091 5.47488 -0.417314 1.70669e-010 -1.38859e-009 -5.3323e-010 -2.90554 0.965183 -0.102902 1.70662e-010 -1.38859e-009 -5.33237e-010 -10.2786 0.731801 -0.0259123 1.70671e-010 -1.3886e-009 -5.33242e-010 -2.22167 -0.733487 0.20892 -2.03217e-016 0 -3.88251e-019 -14.9169 -65.4886 -6.26548 -1.20751 57.5937 0.226247 -1.33424 -4.32455 -6.42796 2.03217e-016 0 3.88251e-019 -12.7038 -9.63009 -3.59791 1.90999 68.6942 -2.23335 1.47459 17.621 -5.61587 
-0.213388 76.1102 -184.923 3.48596 12.6014 -6.17443 6.75634 19.7141 -4.53383 4.7774 -9.79782 -0.352286 -0.847312 -2.75045 2.25401 -9.60879 -19.9474 3.25422 -0 0 0 -0 0 0 -6.43545e-014 -1.3546e-013 1.54154e-013 79.3554 25.5456 -6.73841 -28.3401 -33.6425 82.2382 -0.164645 -11.1364 -1.58664 -4.57233e-010 1.23573e-010 -1.83931e-009 -7.7841e-010 1.81093e-010 -3.17924e-009 -4.57228e-010 1.23582e-010 -1.83931e-009 7.73091 5.47488 0.417314 -4.57236e-010 1.23583e-010 -1.8393e-009 2.90554 0.965183 0.102902 -4.57227e-010 1.2358e-010 -1.8393e-009 10.2786 0.731801 0.0259123 -4.57237e-010 1.23575e-010 -1.83929e-009 2.22167 -0.733487 -0.20892 -6.43909e-014 -1.35494e-013 1.53818e-013 -62.2573 62.8598 -21.7751 28.3931 -34.3247 -83.0284 0.0348103 -5.42228 0.76422 -4.73322e-011 3.79312e-011 1.8646e-011 -8.38145e-011 6.08992e-011 3.10231e-011 -4.733e-011 3.79357e-011 1.86488e-011 -7.73091 5.47488 -0.417314 -4.73287e-011 3.79372e-011 1.86523e-011 -2.90554 0.965183 -0.102902 -4.73358e-011 3.79304e-011 1.86461e-011 -10.2786 0.731801 -0.0259123 -4.73268e-011 3.7931e-011 1.86407e-011 -2.22167 -0.733487 0.20892 -2.03217e-016 0 -3.88251e-019 -14.6222 -67.5085 -6.48759 -1.36503 62.0435 0.375937 -1.5991 -5.76396 -6.91091 2.03217e-016 0 3.88251e-019 -12.1963 -12.9337 -2.55881 3.87713 77.2158 -4.15973 1.32168 16.8663 -5.35446 
-0.905095 76.015 -181.214 1.77302 11.6009 -6.33169 8.67339 21.0679 -3.9168 4.50401 -10.3112 -0.0759246 -0.955495 -2.57475 2.08486 -9.76928 -20.0599 2.89503 -0 0 0 -0 0 0 -1.01568e-014 -9.34278e-014 4.51614e-014 77.2697 25.7166 -2.87159 -28.3324 -33.7114 81.2454 -0.154877 -10.8413 -1.54335 -8.06177e-011 -1.09248e-009 -1.46862e-009 -1.28513e-010 -1.92035e-009 -2.53853e-009 -8.06121e-011 -1.09247e-009 -1.46863e-009 7.73091 5.47488 0.417314 -8.0623e-011 -1.09246e-009 -1.46862e-009 2.90554 0.965183 0.102902 -8.06125e-011 -1.09247e-009 -1.46862e-009 10.2786 0.731801 0.0259123 -8.06226e-011 -1.09247e-009 -1.46861e-009 2.22167 -0.733487 -0.20892 -1.01913e-014 -9.34398e-014 4.48539e-014 -64.5743 61.9421 -18.2736 28.4501 -33.353 -79.6286 0.0155469 -4.06461 0.571858 -3.86822e-010 2.28687e-009 8.85872e-010 -6.69918e-010 3.95154e-009 1.53094e-009 -3.86821e-010 2.28687e-009 8.85874e-010 -7.73091 5.47488 -0.417314 -3.86819e-010 2.28688e-009 8.85877e-010 -2.90554 0.965183 -0.102902 -3.86827e-010 2.28687e-009 8.85873e-010 -10.2786 0.731801 -0.0259123 -3.86817e-010 2.28687e-009 8.85867e-010 -2.22167 -0.733487 0.20892 -2.03217e-016 0 -3.88251e-019 -10.7661 -64.0465 -4.64526 -1.43465 62.8748 0.547472 -1.82447 -7.32287 -6.88545 2.03217e-016 0 3.88251e-019 -9.71195 -16.8082 -0.60771 6.63236 81.7911 -6.87474 0.913322 14.3032 -4.36362 
-1.62586 75.809 -177.556 -0.329451 10.2021 -6.3076 10.5965 21.9406 -3.06271 4.05386 -10.5929 0.244074 -1.02334 -2.30545 1.82773 -9.70218 -19.6465 2.37194 -0 0 0 -0 0 0 4.87279e-014 -4.68213e-014 -6.00974e-014 72.7939 25.1171 1.57851 -28.3572 -34.8614 78.0779 -0.131921 -10.1875 -1.44755 3.02062e-010 -2.77085e-009 -1.0946e-009 5.31817e-010 -4.82176e-009 -1.89212e-009 3.02067e-010 -2.77085e-009 -1.09461e-009 7.73091 5.47488 0.417314 3.02054e-010 -2.77084e-009 -1.0946e-009 2.90554 0.965183 0.102902 3.02065e-010 -2.77085e-009 -1.0946e-009 10.2786 0.731801 0.0259123 3.02055e-010 -2.77085e-009 -1.09459e-009 2.22167 -0.733487 -0.20892 4.87003e-014 -4.681e-014 -6.03719e-014 -65.9092 59.0917 -13.2339 28.3756 -32.8839 -74.0479 0.00473502 -2.58652 0.363539 -7.32915e-010 4.51177e-009 1.76114e-009 -1.26756e-009 7.80014e-009 3.04463e-009 -7.32915e-010 4.51176e-009 1.76114e-009 -7.73091 5.47488 -0.417314 -7.32912e-010 4.51177e-009 1.76114e-009 -2.90554 0.965183 -0.102902 -7.3292e-010 4.51176e-009 1.76114e-009 -10.2786 0.731801 -0.0259123 -7.32911e-010 4.51177e-009 1.76113e-009 -2.22167 -0.733487 0.20892 -2.03217e-016 0 -3.88251e-019 -6.5029 -58.3674 -2.9332 -1.43374 62.1803 0.71192 -2.06087 -9.08023 -6.74519 2.03217e-016 0 3.88251e-019 -6.27349 -21.0868 1.68538 10.4177 84.4842 -10.6305 0.543175 11.0457 -3.13453 
